<mxfile host="app.diagrams.net" agent="Mozilla/5.0 (Macintosh; Intel Mac OS X 10_15_7) AppleWebKit/537.36 (KHTML, like Gecko) Chrome/127.0.0.0 Safari/537.36" version="24.7.7">
  <diagram name="第 1 页" id="KZnRF8F9vb46QKfd7aEL">
    <mxGraphModel dx="1354" dy="1048" grid="0" gridSize="10" guides="1" tooltips="1" connect="1" arrows="1" fold="1" page="0" pageScale="1" pageWidth="3300" pageHeight="4681" math="0" shadow="0">
      <root>
        <mxCell id="0" />
        <mxCell id="1" parent="0" />
        <mxCell id="GBkq_JawVZ9yhKXLJaWH-1" value="上传文件" style="rounded=1;whiteSpace=wrap;html=1;" vertex="1" parent="1">
          <mxGeometry x="-163" y="-30" width="120" height="60" as="geometry" />
        </mxCell>
        <mxCell id="GBkq_JawVZ9yhKXLJaWH-2" value="" style="rounded=0;whiteSpace=wrap;html=1;" vertex="1" parent="1">
          <mxGeometry x="79" y="-105" width="416" height="224" as="geometry" />
        </mxCell>
        <mxCell id="GBkq_JawVZ9yhKXLJaWH-3" value="上传excel文件" style="rounded=1;whiteSpace=wrap;html=1;" vertex="1" parent="1">
          <mxGeometry x="231" y="27" width="120" height="60" as="geometry" />
        </mxCell>
        <mxCell id="GBkq_JawVZ9yhKXLJaWH-4" style="edgeStyle=none;curved=1;rounded=0;orthogonalLoop=1;jettySize=auto;html=1;entryX=0.005;entryY=0.469;entryDx=0;entryDy=0;entryPerimeter=0;fontSize=12;startSize=8;endSize=8;" edge="1" parent="1" source="GBkq_JawVZ9yhKXLJaWH-1" target="GBkq_JawVZ9yhKXLJaWH-2">
          <mxGeometry relative="1" as="geometry" />
        </mxCell>
        <mxCell id="GBkq_JawVZ9yhKXLJaWH-6" value="服务端国际化版本" style="text;html=1;align=center;verticalAlign=middle;whiteSpace=wrap;rounded=0;fontSize=16;" vertex="1" parent="1">
          <mxGeometry x="-169" y="235" width="143" height="30" as="geometry" />
        </mxCell>
        <mxCell id="GBkq_JawVZ9yhKXLJaWH-7" value="开始时间" style="rounded=1;whiteSpace=wrap;html=1;" vertex="1" parent="1">
          <mxGeometry x="-146" y="291" width="79" height="35" as="geometry" />
        </mxCell>
        <mxCell id="GBkq_JawVZ9yhKXLJaWH-8" value="结束时间" style="rounded=1;whiteSpace=wrap;html=1;" vertex="1" parent="1">
          <mxGeometry x="-22" y="291" width="79" height="35" as="geometry" />
        </mxCell>
        <mxCell id="GBkq_JawVZ9yhKXLJaWH-9" value="状态" style="rounded=1;whiteSpace=wrap;html=1;" vertex="1" parent="1">
          <mxGeometry x="113" y="291" width="79" height="35" as="geometry" />
        </mxCell>
        <mxCell id="GBkq_JawVZ9yhKXLJaWH-10" value="查询" style="rounded=1;whiteSpace=wrap;html=1;" vertex="1" parent="1">
          <mxGeometry x="217" y="357" width="80" height="36" as="geometry" />
        </mxCell>
        <mxCell id="GBkq_JawVZ9yhKXLJaWH-11" value="重置" style="rounded=1;whiteSpace=wrap;html=1;" vertex="1" parent="1">
          <mxGeometry x="330" y="357" width="80" height="36" as="geometry" />
        </mxCell>
        <mxCell id="GBkq_JawVZ9yhKXLJaWH-26" value="" style="shape=table;startSize=0;container=1;collapsible=0;childLayout=tableLayout;fontSize=16;" vertex="1" parent="1">
          <mxGeometry x="-146" y="464" width="439" height="118" as="geometry" />
        </mxCell>
        <mxCell id="GBkq_JawVZ9yhKXLJaWH-27" value="" style="shape=tableRow;horizontal=0;startSize=0;swimlaneHead=0;swimlaneBody=0;strokeColor=inherit;top=0;left=0;bottom=0;right=0;collapsible=0;dropTarget=0;fillColor=none;points=[[0,0.5],[1,0.5]];portConstraint=eastwest;fontSize=16;" vertex="1" parent="GBkq_JawVZ9yhKXLJaWH-26">
          <mxGeometry width="439" height="39" as="geometry" />
        </mxCell>
        <mxCell id="GBkq_JawVZ9yhKXLJaWH-28" value="ID" style="shape=partialRectangle;html=1;whiteSpace=wrap;connectable=0;strokeColor=inherit;overflow=hidden;fillColor=none;top=0;left=0;bottom=0;right=0;pointerEvents=1;fontSize=16;" vertex="1" parent="GBkq_JawVZ9yhKXLJaWH-27">
          <mxGeometry width="147" height="39" as="geometry">
            <mxRectangle width="147" height="39" as="alternateBounds" />
          </mxGeometry>
        </mxCell>
        <mxCell id="GBkq_JawVZ9yhKXLJaWH-29" value="状态" style="shape=partialRectangle;html=1;whiteSpace=wrap;connectable=0;strokeColor=inherit;overflow=hidden;fillColor=none;top=0;left=0;bottom=0;right=0;pointerEvents=1;fontSize=16;" vertex="1" parent="GBkq_JawVZ9yhKXLJaWH-27">
          <mxGeometry x="147" width="145" height="39" as="geometry">
            <mxRectangle width="145" height="39" as="alternateBounds" />
          </mxGeometry>
        </mxCell>
        <mxCell id="GBkq_JawVZ9yhKXLJaWH-30" value="版本" style="shape=partialRectangle;html=1;whiteSpace=wrap;connectable=0;strokeColor=inherit;overflow=hidden;fillColor=none;top=0;left=0;bottom=0;right=0;pointerEvents=1;fontSize=16;" vertex="1" parent="GBkq_JawVZ9yhKXLJaWH-27">
          <mxGeometry x="292" width="147" height="39" as="geometry">
            <mxRectangle width="147" height="39" as="alternateBounds" />
          </mxGeometry>
        </mxCell>
        <mxCell id="GBkq_JawVZ9yhKXLJaWH-31" value="" style="shape=tableRow;horizontal=0;startSize=0;swimlaneHead=0;swimlaneBody=0;strokeColor=inherit;top=0;left=0;bottom=0;right=0;collapsible=0;dropTarget=0;fillColor=none;points=[[0,0.5],[1,0.5]];portConstraint=eastwest;fontSize=16;" vertex="1" parent="GBkq_JawVZ9yhKXLJaWH-26">
          <mxGeometry y="39" width="439" height="40" as="geometry" />
        </mxCell>
        <mxCell id="GBkq_JawVZ9yhKXLJaWH-32" value="1" style="shape=partialRectangle;html=1;whiteSpace=wrap;connectable=0;strokeColor=inherit;overflow=hidden;fillColor=none;top=0;left=0;bottom=0;right=0;pointerEvents=1;fontSize=16;" vertex="1" parent="GBkq_JawVZ9yhKXLJaWH-31">
          <mxGeometry width="147" height="40" as="geometry">
            <mxRectangle width="147" height="40" as="alternateBounds" />
          </mxGeometry>
        </mxCell>
        <mxCell id="GBkq_JawVZ9yhKXLJaWH-33" value="审核中" style="shape=partialRectangle;html=1;whiteSpace=wrap;connectable=0;strokeColor=inherit;overflow=hidden;fillColor=none;top=0;left=0;bottom=0;right=0;pointerEvents=1;fontSize=16;" vertex="1" parent="GBkq_JawVZ9yhKXLJaWH-31">
          <mxGeometry x="147" width="145" height="40" as="geometry">
            <mxRectangle width="145" height="40" as="alternateBounds" />
          </mxGeometry>
        </mxCell>
        <mxCell id="GBkq_JawVZ9yhKXLJaWH-34" value="2024-08-20 13:13:13" style="shape=partialRectangle;html=1;whiteSpace=wrap;connectable=0;strokeColor=inherit;overflow=hidden;fillColor=none;top=0;left=0;bottom=0;right=0;pointerEvents=1;fontSize=16;" vertex="1" parent="GBkq_JawVZ9yhKXLJaWH-31">
          <mxGeometry x="292" width="147" height="40" as="geometry">
            <mxRectangle width="147" height="40" as="alternateBounds" />
          </mxGeometry>
        </mxCell>
        <mxCell id="GBkq_JawVZ9yhKXLJaWH-35" value="" style="shape=tableRow;horizontal=0;startSize=0;swimlaneHead=0;swimlaneBody=0;strokeColor=inherit;top=0;left=0;bottom=0;right=0;collapsible=0;dropTarget=0;fillColor=none;points=[[0,0.5],[1,0.5]];portConstraint=eastwest;fontSize=16;" vertex="1" parent="GBkq_JawVZ9yhKXLJaWH-26">
          <mxGeometry y="79" width="439" height="39" as="geometry" />
        </mxCell>
        <mxCell id="GBkq_JawVZ9yhKXLJaWH-36" value="" style="shape=partialRectangle;html=1;whiteSpace=wrap;connectable=0;strokeColor=inherit;overflow=hidden;fillColor=none;top=0;left=0;bottom=0;right=0;pointerEvents=1;fontSize=16;" vertex="1" parent="GBkq_JawVZ9yhKXLJaWH-35">
          <mxGeometry width="147" height="39" as="geometry">
            <mxRectangle width="147" height="39" as="alternateBounds" />
          </mxGeometry>
        </mxCell>
        <mxCell id="GBkq_JawVZ9yhKXLJaWH-37" value="" style="shape=partialRectangle;html=1;whiteSpace=wrap;connectable=0;strokeColor=inherit;overflow=hidden;fillColor=none;top=0;left=0;bottom=0;right=0;pointerEvents=1;fontSize=16;" vertex="1" parent="GBkq_JawVZ9yhKXLJaWH-35">
          <mxGeometry x="147" width="145" height="39" as="geometry">
            <mxRectangle width="145" height="39" as="alternateBounds" />
          </mxGeometry>
        </mxCell>
        <mxCell id="GBkq_JawVZ9yhKXLJaWH-38" value="" style="shape=partialRectangle;html=1;whiteSpace=wrap;connectable=0;strokeColor=inherit;overflow=hidden;fillColor=none;top=0;left=0;bottom=0;right=0;pointerEvents=1;fontSize=16;" vertex="1" parent="GBkq_JawVZ9yhKXLJaWH-35">
          <mxGeometry x="292" width="147" height="39" as="geometry">
            <mxRectangle width="147" height="39" as="alternateBounds" />
          </mxGeometry>
        </mxCell>
        <mxCell id="GBkq_JawVZ9yhKXLJaWH-40" value="" style="shape=partialRectangle;html=1;whiteSpace=wrap;connectable=0;strokeColor=inherit;overflow=hidden;fillColor=none;top=0;left=0;bottom=0;right=0;pointerEvents=1;fontSize=16;" vertex="1" parent="1">
          <mxGeometry x="511" y="553" width="220" height="39" as="geometry">
            <mxRectangle width="220" height="39" as="alternateBounds" />
          </mxGeometry>
        </mxCell>
        <mxCell id="GBkq_JawVZ9yhKXLJaWH-41" value="" style="shape=table;startSize=0;container=1;collapsible=0;childLayout=tableLayout;fontSize=16;" vertex="1" parent="1">
          <mxGeometry x="293" y="464.25" width="298" height="117.75" as="geometry" />
        </mxCell>
        <mxCell id="GBkq_JawVZ9yhKXLJaWH-42" value="" style="shape=tableRow;horizontal=0;startSize=0;swimlaneHead=0;swimlaneBody=0;strokeColor=inherit;top=0;left=0;bottom=0;right=0;collapsible=0;dropTarget=0;fillColor=none;points=[[0,0.5],[1,0.5]];portConstraint=eastwest;fontSize=16;" vertex="1" parent="GBkq_JawVZ9yhKXLJaWH-41">
          <mxGeometry width="298" height="38" as="geometry" />
        </mxCell>
        <mxCell id="GBkq_JawVZ9yhKXLJaWH-43" value="操作" style="shape=partialRectangle;html=1;whiteSpace=wrap;connectable=0;strokeColor=inherit;overflow=hidden;fillColor=none;top=0;left=0;bottom=0;right=0;pointerEvents=1;fontSize=16;" vertex="1" parent="GBkq_JawVZ9yhKXLJaWH-42">
          <mxGeometry width="99" height="38" as="geometry">
            <mxRectangle width="99" height="38" as="alternateBounds" />
          </mxGeometry>
        </mxCell>
        <mxCell id="GBkq_JawVZ9yhKXLJaWH-44" value="" style="shape=partialRectangle;html=1;whiteSpace=wrap;connectable=0;strokeColor=inherit;overflow=hidden;fillColor=none;top=0;left=0;bottom=0;right=0;pointerEvents=1;fontSize=16;" vertex="1" parent="GBkq_JawVZ9yhKXLJaWH-42">
          <mxGeometry x="99" width="100" height="38" as="geometry">
            <mxRectangle width="100" height="38" as="alternateBounds" />
          </mxGeometry>
        </mxCell>
        <mxCell id="GBkq_JawVZ9yhKXLJaWH-45" value="" style="shape=partialRectangle;html=1;whiteSpace=wrap;connectable=0;strokeColor=inherit;overflow=hidden;fillColor=none;top=0;left=0;bottom=0;right=0;pointerEvents=1;fontSize=16;" vertex="1" parent="GBkq_JawVZ9yhKXLJaWH-42">
          <mxGeometry x="199" width="99" height="38" as="geometry">
            <mxRectangle width="99" height="38" as="alternateBounds" />
          </mxGeometry>
        </mxCell>
        <mxCell id="GBkq_JawVZ9yhKXLJaWH-46" value="" style="shape=tableRow;horizontal=0;startSize=0;swimlaneHead=0;swimlaneBody=0;strokeColor=inherit;top=0;left=0;bottom=0;right=0;collapsible=0;dropTarget=0;fillColor=none;points=[[0,0.5],[1,0.5]];portConstraint=eastwest;fontSize=16;" vertex="1" parent="GBkq_JawVZ9yhKXLJaWH-41">
          <mxGeometry y="38" width="298" height="40" as="geometry" />
        </mxCell>
        <mxCell id="GBkq_JawVZ9yhKXLJaWH-47" value="审核" style="shape=partialRectangle;html=1;whiteSpace=wrap;connectable=0;strokeColor=inherit;overflow=hidden;fillColor=none;top=0;left=0;bottom=0;right=0;pointerEvents=1;fontSize=16;" vertex="1" parent="GBkq_JawVZ9yhKXLJaWH-46">
          <mxGeometry width="99" height="40" as="geometry">
            <mxRectangle width="99" height="40" as="alternateBounds" />
          </mxGeometry>
        </mxCell>
        <mxCell id="GBkq_JawVZ9yhKXLJaWH-48" value="" style="shape=partialRectangle;html=1;whiteSpace=wrap;connectable=0;strokeColor=inherit;overflow=hidden;fillColor=none;top=0;left=0;bottom=0;right=0;pointerEvents=1;fontSize=16;" vertex="1" parent="GBkq_JawVZ9yhKXLJaWH-46">
          <mxGeometry x="99" width="100" height="40" as="geometry">
            <mxRectangle width="100" height="40" as="alternateBounds" />
          </mxGeometry>
        </mxCell>
        <mxCell id="GBkq_JawVZ9yhKXLJaWH-49" value="" style="shape=partialRectangle;html=1;whiteSpace=wrap;connectable=0;strokeColor=inherit;overflow=hidden;fillColor=none;top=0;left=0;bottom=0;right=0;pointerEvents=1;fontSize=16;" vertex="1" parent="GBkq_JawVZ9yhKXLJaWH-46">
          <mxGeometry x="199" width="99" height="40" as="geometry">
            <mxRectangle width="99" height="40" as="alternateBounds" />
          </mxGeometry>
        </mxCell>
        <mxCell id="GBkq_JawVZ9yhKXLJaWH-50" value="" style="shape=tableRow;horizontal=0;startSize=0;swimlaneHead=0;swimlaneBody=0;strokeColor=inherit;top=0;left=0;bottom=0;right=0;collapsible=0;dropTarget=0;fillColor=none;points=[[0,0.5],[1,0.5]];portConstraint=eastwest;fontSize=16;" vertex="1" parent="GBkq_JawVZ9yhKXLJaWH-41">
          <mxGeometry y="78" width="298" height="40" as="geometry" />
        </mxCell>
        <mxCell id="GBkq_JawVZ9yhKXLJaWH-51" value="" style="shape=partialRectangle;html=1;whiteSpace=wrap;connectable=0;strokeColor=inherit;overflow=hidden;fillColor=none;top=0;left=0;bottom=0;right=0;pointerEvents=1;fontSize=16;" vertex="1" parent="GBkq_JawVZ9yhKXLJaWH-50">
          <mxGeometry width="99" height="40" as="geometry">
            <mxRectangle width="99" height="40" as="alternateBounds" />
          </mxGeometry>
        </mxCell>
        <mxCell id="GBkq_JawVZ9yhKXLJaWH-52" value="" style="shape=partialRectangle;html=1;whiteSpace=wrap;connectable=0;strokeColor=inherit;overflow=hidden;fillColor=none;top=0;left=0;bottom=0;right=0;pointerEvents=1;fontSize=16;" vertex="1" parent="GBkq_JawVZ9yhKXLJaWH-50">
          <mxGeometry x="99" width="100" height="40" as="geometry">
            <mxRectangle width="100" height="40" as="alternateBounds" />
          </mxGeometry>
        </mxCell>
        <mxCell id="GBkq_JawVZ9yhKXLJaWH-53" value="" style="shape=partialRectangle;html=1;whiteSpace=wrap;connectable=0;strokeColor=inherit;overflow=hidden;fillColor=none;top=0;left=0;bottom=0;right=0;pointerEvents=1;fontSize=16;" vertex="1" parent="GBkq_JawVZ9yhKXLJaWH-50">
          <mxGeometry x="199" width="99" height="40" as="geometry">
            <mxRectangle width="99" height="40" as="alternateBounds" />
          </mxGeometry>
        </mxCell>
        <mxCell id="GBkq_JawVZ9yhKXLJaWH-73" value="审核页面" style="text;html=1;align=center;verticalAlign=middle;whiteSpace=wrap;rounded=0;fontSize=16;" vertex="1" parent="1">
          <mxGeometry x="-146" y="659" width="147" height="30" as="geometry" />
        </mxCell>
        <mxCell id="GBkq_JawVZ9yhKXLJaWH-74" value="" style="shape=table;startSize=0;container=1;collapsible=0;childLayout=tableLayout;fontSize=16;" vertex="1" parent="1">
          <mxGeometry x="-104" y="771" width="308" height="120" as="geometry" />
        </mxCell>
        <mxCell id="GBkq_JawVZ9yhKXLJaWH-75" value="" style="shape=tableRow;horizontal=0;startSize=0;swimlaneHead=0;swimlaneBody=0;strokeColor=inherit;top=0;left=0;bottom=0;right=0;collapsible=0;dropTarget=0;fillColor=none;points=[[0,0.5],[1,0.5]];portConstraint=eastwest;fontSize=16;" vertex="1" parent="GBkq_JawVZ9yhKXLJaWH-74">
          <mxGeometry width="308" height="40" as="geometry" />
        </mxCell>
        <mxCell id="GBkq_JawVZ9yhKXLJaWH-76" value="id" style="shape=partialRectangle;html=1;whiteSpace=wrap;connectable=0;strokeColor=inherit;overflow=hidden;fillColor=none;top=0;left=0;bottom=0;right=0;pointerEvents=1;fontSize=16;" vertex="1" parent="GBkq_JawVZ9yhKXLJaWH-75">
          <mxGeometry width="103" height="40" as="geometry">
            <mxRectangle width="103" height="40" as="alternateBounds" />
          </mxGeometry>
        </mxCell>
        <mxCell id="GBkq_JawVZ9yhKXLJaWH-77" value="code" style="shape=partialRectangle;html=1;whiteSpace=wrap;connectable=0;strokeColor=inherit;overflow=hidden;fillColor=none;top=0;left=0;bottom=0;right=0;pointerEvents=1;fontSize=16;" vertex="1" parent="GBkq_JawVZ9yhKXLJaWH-75">
          <mxGeometry x="103" width="102" height="40" as="geometry">
            <mxRectangle width="102" height="40" as="alternateBounds" />
          </mxGeometry>
        </mxCell>
        <mxCell id="GBkq_JawVZ9yhKXLJaWH-78" value="lang" style="shape=partialRectangle;html=1;whiteSpace=wrap;connectable=0;strokeColor=inherit;overflow=hidden;fillColor=none;top=0;left=0;bottom=0;right=0;pointerEvents=1;fontSize=16;" vertex="1" parent="GBkq_JawVZ9yhKXLJaWH-75">
          <mxGeometry x="205" width="103" height="40" as="geometry">
            <mxRectangle width="103" height="40" as="alternateBounds" />
          </mxGeometry>
        </mxCell>
        <mxCell id="GBkq_JawVZ9yhKXLJaWH-79" value="" style="shape=tableRow;horizontal=0;startSize=0;swimlaneHead=0;swimlaneBody=0;strokeColor=inherit;top=0;left=0;bottom=0;right=0;collapsible=0;dropTarget=0;fillColor=none;points=[[0,0.5],[1,0.5]];portConstraint=eastwest;fontSize=16;" vertex="1" parent="GBkq_JawVZ9yhKXLJaWH-74">
          <mxGeometry y="40" width="308" height="40" as="geometry" />
        </mxCell>
        <mxCell id="GBkq_JawVZ9yhKXLJaWH-80" value="1" style="shape=partialRectangle;html=1;whiteSpace=wrap;connectable=0;strokeColor=inherit;overflow=hidden;fillColor=none;top=0;left=0;bottom=0;right=0;pointerEvents=1;fontSize=16;" vertex="1" parent="GBkq_JawVZ9yhKXLJaWH-79">
          <mxGeometry width="103" height="40" as="geometry">
            <mxRectangle width="103" height="40" as="alternateBounds" />
          </mxGeometry>
        </mxCell>
        <mxCell id="GBkq_JawVZ9yhKXLJaWH-81" value="10000" style="shape=partialRectangle;html=1;whiteSpace=wrap;connectable=0;strokeColor=inherit;overflow=hidden;fillColor=none;top=0;left=0;bottom=0;right=0;pointerEvents=1;fontSize=16;" vertex="1" parent="GBkq_JawVZ9yhKXLJaWH-79">
          <mxGeometry x="103" width="102" height="40" as="geometry">
            <mxRectangle width="102" height="40" as="alternateBounds" />
          </mxGeometry>
        </mxCell>
        <mxCell id="GBkq_JawVZ9yhKXLJaWH-82" value="en" style="shape=partialRectangle;html=1;whiteSpace=wrap;connectable=0;strokeColor=inherit;overflow=hidden;fillColor=none;top=0;left=0;bottom=0;right=0;pointerEvents=1;fontSize=16;" vertex="1" parent="GBkq_JawVZ9yhKXLJaWH-79">
          <mxGeometry x="205" width="103" height="40" as="geometry">
            <mxRectangle width="103" height="40" as="alternateBounds" />
          </mxGeometry>
        </mxCell>
        <mxCell id="GBkq_JawVZ9yhKXLJaWH-83" value="" style="shape=tableRow;horizontal=0;startSize=0;swimlaneHead=0;swimlaneBody=0;strokeColor=inherit;top=0;left=0;bottom=0;right=0;collapsible=0;dropTarget=0;fillColor=none;points=[[0,0.5],[1,0.5]];portConstraint=eastwest;fontSize=16;" vertex="1" parent="GBkq_JawVZ9yhKXLJaWH-74">
          <mxGeometry y="80" width="308" height="40" as="geometry" />
        </mxCell>
        <mxCell id="GBkq_JawVZ9yhKXLJaWH-84" value="" style="shape=partialRectangle;html=1;whiteSpace=wrap;connectable=0;strokeColor=inherit;overflow=hidden;fillColor=none;top=0;left=0;bottom=0;right=0;pointerEvents=1;fontSize=16;" vertex="1" parent="GBkq_JawVZ9yhKXLJaWH-83">
          <mxGeometry width="103" height="40" as="geometry">
            <mxRectangle width="103" height="40" as="alternateBounds" />
          </mxGeometry>
        </mxCell>
        <mxCell id="GBkq_JawVZ9yhKXLJaWH-85" value="" style="shape=partialRectangle;html=1;whiteSpace=wrap;connectable=0;strokeColor=inherit;overflow=hidden;fillColor=none;top=0;left=0;bottom=0;right=0;pointerEvents=1;fontSize=16;" vertex="1" parent="GBkq_JawVZ9yhKXLJaWH-83">
          <mxGeometry x="103" width="102" height="40" as="geometry">
            <mxRectangle width="102" height="40" as="alternateBounds" />
          </mxGeometry>
        </mxCell>
        <mxCell id="GBkq_JawVZ9yhKXLJaWH-86" value="" style="shape=partialRectangle;html=1;whiteSpace=wrap;connectable=0;strokeColor=inherit;overflow=hidden;fillColor=none;top=0;left=0;bottom=0;right=0;pointerEvents=1;fontSize=16;" vertex="1" parent="GBkq_JawVZ9yhKXLJaWH-83">
          <mxGeometry x="205" width="103" height="40" as="geometry">
            <mxRectangle width="103" height="40" as="alternateBounds" />
          </mxGeometry>
        </mxCell>
        <mxCell id="GBkq_JawVZ9yhKXLJaWH-87" value="" style="shape=table;startSize=0;container=1;collapsible=0;childLayout=tableLayout;fontSize=16;" vertex="1" parent="1">
          <mxGeometry x="204" y="771" width="303" height="120" as="geometry" />
        </mxCell>
        <mxCell id="GBkq_JawVZ9yhKXLJaWH-88" value="" style="shape=tableRow;horizontal=0;startSize=0;swimlaneHead=0;swimlaneBody=0;strokeColor=inherit;top=0;left=0;bottom=0;right=0;collapsible=0;dropTarget=0;fillColor=none;points=[[0,0.5],[1,0.5]];portConstraint=eastwest;fontSize=16;" vertex="1" parent="GBkq_JawVZ9yhKXLJaWH-87">
          <mxGeometry width="303" height="40" as="geometry" />
        </mxCell>
        <mxCell id="GBkq_JawVZ9yhKXLJaWH-89" value="类型" style="shape=partialRectangle;html=1;whiteSpace=wrap;connectable=0;strokeColor=inherit;overflow=hidden;fillColor=none;top=0;left=0;bottom=0;right=0;pointerEvents=1;fontSize=16;" vertex="1" parent="GBkq_JawVZ9yhKXLJaWH-88">
          <mxGeometry width="101" height="40" as="geometry">
            <mxRectangle width="101" height="40" as="alternateBounds" />
          </mxGeometry>
        </mxCell>
        <mxCell id="GBkq_JawVZ9yhKXLJaWH-90" value="新内容" style="shape=partialRectangle;html=1;whiteSpace=wrap;connectable=0;strokeColor=inherit;overflow=hidden;fillColor=none;top=0;left=0;bottom=0;right=0;pointerEvents=1;fontSize=16;" vertex="1" parent="GBkq_JawVZ9yhKXLJaWH-88">
          <mxGeometry x="101" width="101" height="40" as="geometry">
            <mxRectangle width="101" height="40" as="alternateBounds" />
          </mxGeometry>
        </mxCell>
        <mxCell id="GBkq_JawVZ9yhKXLJaWH-91" value="原内容" style="shape=partialRectangle;html=1;whiteSpace=wrap;connectable=0;strokeColor=inherit;overflow=hidden;fillColor=none;top=0;left=0;bottom=0;right=0;pointerEvents=1;fontSize=16;" vertex="1" parent="GBkq_JawVZ9yhKXLJaWH-88">
          <mxGeometry x="202" width="101" height="40" as="geometry">
            <mxRectangle width="101" height="40" as="alternateBounds" />
          </mxGeometry>
        </mxCell>
        <mxCell id="GBkq_JawVZ9yhKXLJaWH-96" value="" style="shape=tableRow;horizontal=0;startSize=0;swimlaneHead=0;swimlaneBody=0;strokeColor=inherit;top=0;left=0;bottom=0;right=0;collapsible=0;dropTarget=0;fillColor=none;points=[[0,0.5],[1,0.5]];portConstraint=eastwest;fontSize=16;" vertex="1" parent="GBkq_JawVZ9yhKXLJaWH-87">
          <mxGeometry y="40" width="303" height="40" as="geometry" />
        </mxCell>
        <mxCell id="GBkq_JawVZ9yhKXLJaWH-97" value="修改" style="shape=partialRectangle;html=1;whiteSpace=wrap;connectable=0;strokeColor=inherit;overflow=hidden;fillColor=none;top=0;left=0;bottom=0;right=0;pointerEvents=1;fontSize=16;" vertex="1" parent="GBkq_JawVZ9yhKXLJaWH-96">
          <mxGeometry width="101" height="40" as="geometry">
            <mxRectangle width="101" height="40" as="alternateBounds" />
          </mxGeometry>
        </mxCell>
        <mxCell id="GBkq_JawVZ9yhKXLJaWH-98" value="1" style="shape=partialRectangle;html=1;whiteSpace=wrap;connectable=0;strokeColor=inherit;overflow=hidden;fillColor=none;top=0;left=0;bottom=0;right=0;pointerEvents=1;fontSize=16;" vertex="1" parent="GBkq_JawVZ9yhKXLJaWH-96">
          <mxGeometry x="101" width="101" height="40" as="geometry">
            <mxRectangle width="101" height="40" as="alternateBounds" />
          </mxGeometry>
        </mxCell>
        <mxCell id="GBkq_JawVZ9yhKXLJaWH-99" value="2" style="shape=partialRectangle;html=1;whiteSpace=wrap;connectable=0;strokeColor=inherit;overflow=hidden;fillColor=none;top=0;left=0;bottom=0;right=0;pointerEvents=1;fontSize=16;" vertex="1" parent="GBkq_JawVZ9yhKXLJaWH-96">
          <mxGeometry x="202" width="101" height="40" as="geometry">
            <mxRectangle width="101" height="40" as="alternateBounds" />
          </mxGeometry>
        </mxCell>
        <mxCell id="GBkq_JawVZ9yhKXLJaWH-92" value="" style="shape=tableRow;horizontal=0;startSize=0;swimlaneHead=0;swimlaneBody=0;strokeColor=inherit;top=0;left=0;bottom=0;right=0;collapsible=0;dropTarget=0;fillColor=none;points=[[0,0.5],[1,0.5]];portConstraint=eastwest;fontSize=16;" vertex="1" parent="GBkq_JawVZ9yhKXLJaWH-87">
          <mxGeometry y="80" width="303" height="40" as="geometry" />
        </mxCell>
        <mxCell id="GBkq_JawVZ9yhKXLJaWH-93" value="" style="shape=partialRectangle;html=1;whiteSpace=wrap;connectable=0;strokeColor=inherit;overflow=hidden;fillColor=none;top=0;left=0;bottom=0;right=0;pointerEvents=1;fontSize=16;" vertex="1" parent="GBkq_JawVZ9yhKXLJaWH-92">
          <mxGeometry width="101" height="40" as="geometry">
            <mxRectangle width="101" height="40" as="alternateBounds" />
          </mxGeometry>
        </mxCell>
        <mxCell id="GBkq_JawVZ9yhKXLJaWH-94" value="" style="shape=partialRectangle;html=1;whiteSpace=wrap;connectable=0;strokeColor=inherit;overflow=hidden;fillColor=none;top=0;left=0;bottom=0;right=0;pointerEvents=1;fontSize=16;" vertex="1" parent="GBkq_JawVZ9yhKXLJaWH-92">
          <mxGeometry x="101" width="101" height="40" as="geometry">
            <mxRectangle width="101" height="40" as="alternateBounds" />
          </mxGeometry>
        </mxCell>
        <mxCell id="GBkq_JawVZ9yhKXLJaWH-95" value="" style="shape=partialRectangle;html=1;whiteSpace=wrap;connectable=0;strokeColor=inherit;overflow=hidden;fillColor=none;top=0;left=0;bottom=0;right=0;pointerEvents=1;fontSize=16;" vertex="1" parent="GBkq_JawVZ9yhKXLJaWH-92">
          <mxGeometry x="202" width="101" height="40" as="geometry">
            <mxRectangle width="101" height="40" as="alternateBounds" />
          </mxGeometry>
        </mxCell>
        <mxCell id="GBkq_JawVZ9yhKXLJaWH-125" value="通过" style="rounded=1;whiteSpace=wrap;html=1;" vertex="1" parent="1">
          <mxGeometry x="310" y="970" width="96" height="38" as="geometry" />
        </mxCell>
        <mxCell id="GBkq_JawVZ9yhKXLJaWH-126" value="驳回" style="rounded=1;whiteSpace=wrap;html=1;" vertex="1" parent="1">
          <mxGeometry x="433" y="970" width="90" height="36" as="geometry" />
        </mxCell>
      </root>
    </mxGraphModel>
  </diagram>
</mxfile>
